<?xml version="1.0" encoding="UTF-8"?>
<svg id="Layer_2" data-name="Layer 2" xmlns="http://www.w3.org/2000/svg" viewBox="0 0 302.33 302.04">
  <defs>
    <style>
      .cls-1 {
        fill: #010101;
      }
    </style>
  </defs>
  <g id="Layer_1-2" data-name="Layer 1">
    <g>
      <path class="cls-1" d="M173.89,130.42c-14.75-37.26-53.58-61.64-93.58-61.17-3.29-14.21-5.97-28.94-4.13-43.49,1.1-1.64,18.81-.23,22.06.14,29.15,3.31,54.91,17.15,74.87,38.22C198.76,20.3,251.29-3.15,301.38.34c1.65,1.15.33,22.18-.05,25.83-2.88,27.66-14.74,56.55-33.13,77.39-2.89,3.27-18.19,18.63-21.22,19.36-2.46.59-13.05-2.45-16.76-2.79-12.99-1.19-26.95.29-39.41,4.04-5.83,1.76-11.08,4.64-16.92,6.24Z"/>
      <path class="cls-1" d="M72.02,88.66C36.16,92.01,5.59,122.83.8,158.18c-9.78,72.22,71.99,121.16,130.25,77.2,66.15-49.91,25.31-154.58-59.03-146.72ZM81.65,163.7h-13.97l6.6,12.56-10.63,6.58-6.28-12.25c-.9-.13-.95-.27-1.51.47-2.01,2.68-4.21,8.54-5.84,11.76-.49.38-10.28-5.43-10.69-6.1-.69-1.11.06-1.21.36-1.96,1.49-3.68,4.88-7.04,5.93-11.05h-13.97v-13h13.97c.49-.37-5.45-9.88-5.93-11.05-.25-.62-1.19-1.12-.37-1.97l10.69-6.09c1.4,3.23,3.87,9.13,5.84,11.76.56.75.61.6,1.51.47l6.28-12.25,10.64,6.56-6.61,12.57h13.97v13Z"/>
      <path class="cls-1" d="M212.02,138.77c-7.99.71-20.03,3.74-27.1,7.53-7.6,4.07-3.39,6.75-2.93,13.96,2.28,35.82-10.79,66.26-38.09,89.17,21.98,57.63,98.06,71.33,138.65,23.97,47.9-55.88,2.73-141.1-70.52-134.63ZM263.65,245.7h-13.97l7.35,12.99-10.68,6.05-7.34-12.14-7.34,12.14-10.68-6.05,7.35-12.98h-14.71v-13h14.71l-7.33-12.62,10.65-6.42,7.34,12.15,7.34-12.12,10.33,6.01-7.01,13.01h13.97v13Z"/>
    </g>
  </g>
</svg>