<?xml version="1.0" encoding="UTF-8"?>
<svg id="Layer_2" data-name="Layer 2" xmlns="http://www.w3.org/2000/svg" viewBox="0 0 348.33 347.94">
  <defs>
    <style>
      .cls-1 {
        fill: #010101;
      }
    </style>
  </defs>
  <g id="Layer_1-2" data-name="Layer 1">
    <path class="cls-1" d="M163.48.34C33.53,8.19-42.95,153.34,25.77,265.1c65.28,106.15,218.27,111.35,290.4,9.44C400.5,155.38,308.31-8.42,163.48.34ZM265.65,106.96c2.01,32.45-41.98,33.81-64.52,39.4,3.28-15.58,5.38-32.51,11.63-47.23,12.1-28.46,51.15-20.23,52.89,7.83ZM157.26,60.87c17.24-13.3,44.06-1.21,44.67,20.62.45,16.06-19.48,39.75-27.06,53.62-.47.39-1.06.09-1.55-.46-2.64-2.96-6.61-9.74-8.95-13.39-11.27-17.57-29.11-43.41-7.11-60.39ZM130.28,102.1c2.55,5.01,16.4,44.64,14.6,46.52-14.4-1.92-29.1-3.37-43.06-7.56-8.95-2.68-16.45-5.5-20.82-14.43-15.85-32.4,31.89-58.69,49.28-24.53ZM60.57,162.93c19.91-26.74,53.57,2.35,74.55,12.7l-.48,1.55c-13.51,8.96-29.7,24.22-45.42,28.67-24.16,6.84-43.57-22.88-28.66-42.91ZM132.43,261.04c-23.91,25.58-64.88-11.82-40.44-38.19,10.27-11.08,41.49-15.87,55.89-20.23-2.55,15.33-4.69,46.9-15.45,58.42ZM162.2,288.43c-25.56-16.45-3.26-50.09,8.62-68.5,1.02-1.59,3.02-5.26,4-6.34.49-.55,1.07-.85,1.55-.46,8.53,13.67,20.96,27.53,26.63,42.76,9.51,25.58-18.58,46.84-40.8,32.55ZM216.47,249.9c-7.4-14.06-10.55-33.27-13.84-48.78,1.41-1.38,32.51,5.7,36.91,6.96,14.4,4.13,27.04,9.16,28.36,26.38,2.29,29.84-37.58,41.77-51.43,15.44ZM257.97,198.65c-15.8-4.63-30.58-16.63-44.83-24.55-.22-1.04-.15-.95.47-1.55,5.12-4.87,19-13.25,25.54-17.04,14.59-8.47,31.2-17.41,45.72-2.88,19.7,19.73,1.2,54.26-26.9,46.02Z"/>
  </g>
</svg>