<svg width="32" height="32" viewBox="0 0 32 32" xmlns="http://www.w3.org/2000/svg">
  <defs>
    <linearGradient id="bgGradient" x1="0%" y1="0%" x2="100%" y2="100%">
      <stop offset="0%" style="stop-color:#2e7d32;stop-opacity:1" />
      <stop offset="100%" style="stop-color:#1976d2;stop-opacity:1" />
    </linearGradient>
  </defs>
  
  <!-- Background -->
  <rect width="32" height="32" rx="6" fill="url(#bgGradient)"/>
  
  <!-- Canefrost 'C' Logo -->
  <g transform="translate(6, 6)">
    <!-- Main C shape -->
    <path d="M10 2 C14.5 2 18 5.5 18 10 C18 14.5 14.5 18 10 18 L8 18 C6 18 4 16 4 14 L4 6 C4 4 6 2 8 2 Z" 
          fill="#f5f5f5" opacity="0.95"/>
    
    <!-- Inner cut to create C shape -->
    <path d="M10 6 C12 6 14 8 14 10 C14 12 12 14 10 14 L9 14 L9 6 Z" 
          fill="url(#bgGradient)"/>
    
    <!-- Highlight accent -->
    <path d="M8 4 C9 4 10 4.5 10.5 5.5 L12 5 C11 3.5 9.5 2.5 8 2.5 C6.5 2.5 5.5 3.5 5.5 4.5 L7 5 C7.2 4.3 7.5 4 8 4 Z" 
          fill="#26c6da" opacity="0.8"/>
  </g>
</svg>