<?xml version="1.0" encoding="UTF-8"?>
<svg id="Layer_2" data-name="Layer 2" xmlns="http://www.w3.org/2000/svg" viewBox="0 0 364.96 364.46">
  <defs>
    <style>
      .cls-1 {
        fill: #010101;
      }
    </style>
  </defs>
  <g id="Layer_1-2" data-name="Layer 1">
    <path class="cls-1" d="M169.26.39C35.37,8.87-43.09,158.72,25.03,274.75c70.46,120.01,245.39,119.55,315.05-1.04C413.55,146.54,314.7-8.82,169.26.39ZM281.76,90.87c-8.32,3.05-19.41,2.5-27.32,8.37,10.64,3.24,29.28,1.09,26.39,18.04-2.43,14.29-22.04,8.43-31.71,6.26-5.68-1.27-17.79-6.33-22.58-4.37-1.74.71-10.06,9.51-11.97,11.56-10.57,11.34-26.21,31.08-33.02,44.8-.08,1.78,2.51,1.31,3.8.76,7.88.14,15.75-.79,23.55-1.88,3.44-7.46,6.97-14.92,11.82-21.59,5.49-7.56,12.42-15.79,22.28-8.75,9.18,6.56,3.54,17.19-2.23,23.86,7.12-1.04,13.57-8.62,20.86-8.38,8.79.29,12.73,8.91,10.67,16.76-1.56,5.97-16.36,12.26-22.02,14.42-7.83,2.98-16.32,5.28-24.69,6.06,2.46,2.4,5.33,1.79,8.37,4.15,9.43,7.33,4.23,22.03-7.22,22.26-12.98.26-29.49-11.42-35.76-22.49-9.88,2.78-21.2-3.81-27.79,6.17-8.93,13.51-14.7,32.86-22.6,47.25l1.1,1.11c10.98,0,22-1.11,32.89-2.43,2.71-8.04,12.37-25.5,21.21-27,11.4-1.93,18.07,8.83,13.11,18.79,11.07-1.79,17.28-15.2,29.26-8.37,5.57,3.18,7.08,10.53,3.88,16.08-7.07,12.25-34.98,19.69-48.31,21.91-1.61,1.34,7.52,5.35,8.36,5.67,5.05,1.92,9.1.97,12.88,6.1,6.36,8.62.42,20.07-10.12,19.83-15.35-.34-34.3-15.42-43.54-26.93-6.42,1.35-13.07.23-19.58.65-2.17.14-6.41.44-8.32.79-7.39,1.33-8.73,18.88-13.32,24.64-6.51,8.16-19.61,5.43-21.68-4.89-1.13-5.64,3.81-16.48,5.93-22.25,4.79-13.09,15.43-31.11,13.29-44.8-1.21-7.73-6.8-17.14-7.02-25.63-12.15-4.52-26.9-14.49-32.91-26.31-5.8-11.42-.74-24.78,13.19-20.78,8.7,2.49,8.32,13.29,16.28,16.74.72-10.74-.1-23.15,1.61-33.69,2.71-16.68,20.48-20.23,24.97-3.5,15.22-5.6,25.28,11.23,11.74,22-2.65,2.11-12.88,6.68-13.27,8.75-.54,2.86-.17,10.38.01,13.66.38,6.97,1.77,14.85,3.41,21.64,5.45-9.75,10.62-19.67,16.2-29.36,2.38-4.14,12.99-19.46,13.05-22.62l-4.98-28.47c-9.06-3.7-25.81-14.95-24.6-26.14.97-9.04,11.16-13.92,18.9-9.16l5.33,5.66c1.05-12.07,17.64-16.21,23.21-5.36,3.86,7.52.82,24.83,1.81,33.87.08.76.37,2.64,1.18,2.61.89-.04,9.7-11.85,11.38-13.66,18.57-20.05,44.98-40.26,72.48-45.2,5.55-1,9.68-1.97,14.72,1.3,8,5.2,6.7,18.1-2.55,21.49Z"/>
  </g>
</svg>