<?xml version="1.0" encoding="UTF-8"?>
<svg id="Layer_2" data-name="Layer 2" xmlns="http://www.w3.org/2000/svg" viewBox="0 0 384 372.89">
  <defs>
    <style>
      .cls-1 {
        fill: #010101;
      }
    </style>
  </defs>
  <g id="Layer_1-2" data-name="Layer 1">
    <g>
      <path class="cls-1" d="M.75,150.07c3.11-45.73,56.87-75.79,98.43-57.77,6.45,32.95,19.65,62.32,41.03,88.13.71.86,5.39,4.8,4.47,5.64-14.02-2.31-29.76-8.98-40.49-18.36-6.72-5.88-12.83-18.93-23.6-10.88-7.77,5.81-3.95,13.87,1.1,19.89,20.21,24.09,52.98,31.69,82.77,34.2.97.08,4.6.42,4.96,1.4-31.97,17.36-68.92,24.47-105.11,18.54-29.91-4.9-52.59-22.25-61.52-51.71l-2.8-11.07v-14.25c.25-1.3.5-2.55.75-3.75Z"/>
      <path class="cls-1" d="M383.09,150.07c.25,1.2.5,2.45.75,3.75-.36,4.56.5,9.79,0,14.25-.28,2.52-2,8.33-2.8,11.07-7.1,24.34-27.28,44.33-52.29,49.68-7.38-5.88-14.21-12.34-21.89-17.86-20.57-14.8-44.96-25.52-69.96-30.15,2.29-2.35,7.09-3.94,10.34-5.02,10.21-3.4,22.74-5.6,33.51-4.71,7.83.65,15.49,5.9,22.51,0,6.11-5.13,4.09-15.31-3.2-18.56-19.88-8.86-53.43-1.4-72.66,7.18l-25.73,14.37c15.89-34.36,44.85-65.1,79.95-80.14,43.79-18.75,97.6,6.99,101.48,56.14Z"/>
      <path class="cls-1" d="M222.67,234.83l7.36,8.75c6.18,9.05,12.05,18.82,14.61,29.63,2.18,9.19.05,25.32,14.29,23.82,15.8-1.67,8.12-27.99,4.76-37.64-8.34-24-26.29-43.25-45.54-59.06,36.86,3.69,75.47,22.43,100.09,50.23,58.39,65.91-22.92,155.57-91.78,109.82-5.32-3.54-19.46-16.39-21.46-22.1-.44-1.26,8.4-21.19,9.61-24.87,8.37-25.54,10.44-51.85,8.04-78.59Z"/>
      <path class="cls-1" d="M165.68,239.33c.84.84-7.15,11.67-8.27,13.09-5.67,7.16-13.63,15.11-21.48,19.76s-24.79,8.21-16.59,21.4c6.44,10.36,20.87,2.06,28.59-2.64,19.79-12.06,35.24-33.43,44.64-54.34l5.35-13.01c1.26,6.01,2.44,12.25,3,18.38,3.69,40-10.69,100.97-48.71,121.51-56.21,30.36-120.27-21.07-103.67-82.71,1.84-6.81,8.13-21,13.28-25.71,3.36-3.08,12.6-.12,17.25.07,30.34,1.2,58.8-3.93,86.62-15.78Z"/>
      <path class="cls-1" d="M188,150.07v-23.62c0-4.45,3.6-16.37,5.43-20.82,2.52-6.12,9.06-12.86,7.74-19.34-1.84-9.09-12.51-11.75-19.09-5.51-2.73,2.59-7.4,12.03-8.96,15.78-8.17,19.59-9.2,42.62-5.89,63.43l4.66,20.84c-21-18.45-37.19-44.05-45.37-70.86-9.09-29.78-11.12-59.24,10.13-84.4,35.52-42.07,103.91-30.33,122.6,21.37,2.36,6.54,6.26,23.58,4.34,29.87-.56,1.84-14.47,9.22-17.34,11.15-17.92,12.1-34.29,27.78-46.85,45.38-3.91,5.48-6.95,11.86-11.38,16.74Z"/>
    </g>
  </g>
</svg>